<?xml version="1.0" encoding="utf-8"?>
<!-- Generator: Adobe Illustrator 26.3.1, SVG Export Plug-In . SVG Version: 6.00 Build 0)  -->
<svg version="1.1" id="Layer_1" xmlns="http://www.w3.org/2000/svg" xmlns:xlink="http://www.w3.org/1999/xlink" x="0px" y="0px"
	 viewBox="0 0 128 128" style="enable-background:new 0 0 128 128;" xml:space="preserve">
<style type="text/css">
	.st0{fill:#EFEEEE;}
	.st1{fill:#9F9F9F;}
	
		.st2{fill:url(#rect961_00000145023533022727698350000015195208103300493986_);stroke:#FFFFFF;stroke-width:5.398;stroke-linecap:round;stroke-linejoin:round;}
	
		.st3{fill-rule:evenodd;clip-rule:evenodd;fill:#CDCCCC;stroke:#FFFFFF;stroke-width:2.2567;stroke-linecap:round;stroke-linejoin:round;stroke-miterlimit:10;}
	
		.st4{fill-rule:evenodd;clip-rule:evenodd;fill:#FFFFFF;stroke:#FFFFFF;stroke-width:2.2567;stroke-linecap:round;stroke-linejoin:round;stroke-miterlimit:10;}
	
		.st5{fill-rule:evenodd;clip-rule:evenodd;fill:#B4B4B4;stroke:#FFFFFF;stroke-width:2.2567;stroke-linecap:round;stroke-linejoin:round;stroke-miterlimit:10;}
	.st6{enable-background:new    ;}
	.st7{fill:#767676;}
</style>
<g id="layer1" transform="translate(-399.13437,-122.79051)">
	<path id="rect1017" class="st0" d="M401.9,122.8h122.6c1.5,0,2.7,1,2.7,2.2v123.6c0,1.2-1.2,2.2-2.7,2.2H401.9
		c-1.5,0-2.7-1-2.7-2.2V125C399.1,123.8,400.4,122.8,401.9,122.8z"/>
	<g id="g1015" transform="translate(43.778173,191.04163)">
		<path id="rect1002" class="st1" d="M391-28.7l22.5-6.6c1.6-0.5,3.3,0.4,3.7,2L424.7-8c0.5,1.6-0.4,3.3-2,3.7l-22.5,6.6
			c-1.6,0.5-3.3-0.4-3.7-2L389-25C388.5-26.6,389.5-28.2,391-28.7z"/>
		<g id="g1000" transform="rotate(16.320529,538.13563,-184.89727)">
			
				<linearGradient id="rect961_00000119822238731518369440000016459284048774352793_" gradientUnits="userSpaceOnUse" x1="1352.2365" y1="288.2834" x2="1351.6617" y2="251.78" gradientTransform="matrix(0.9597 -0.281 -0.281 -0.9597 -744.0548 638.7937)">
				<stop  offset="0" style="stop-color:#C3C2C2"/>
				<stop  offset="1" style="stop-color:#9F9F9F"/>
			</linearGradient>
			
				<path id="rect961" style="fill:url(#rect961_00000119822238731518369440000016459284048774352793_);stroke:#FFFFFF;stroke-width:5.398;stroke-linecap:round;stroke-linejoin:round;" d="
				M454.8-19.7l35.2,0c0.9,0,1.6,0.7,1.6,1.6l0,38.1c0,0.9-0.7,1.6-1.6,1.6l-35.2,0c-0.9,0-1.6-0.7-1.6-1.6V-18
				C453.1-19,453.9-19.7,454.8-19.7z"/>
			<g id="g875" transform="matrix(0.17265471,0,0,0.17265471,512.49324,-6.3296456)">
				
					<rect id="rect3338" x="-311.9" y="-62.9" transform="matrix(2.819178e-06 1 -1 2.819178e-06 -206.6206 256.3242)" class="st3" width="160.8" height="175.5"/>
				
					<rect id="rect3342" x="-269" y="-105.7" transform="matrix(2.819178e-06 1 -1 2.819178e-06 -249.4911 213.4539)" class="st4" width="75" height="175.5"/>
				<path id="path3344" class="st3" d="M-308.5,19.5l13.7-19.1l21.6-16.1l5.7,6.6l4.9-13.8l2.9-1.1l4.8-10.1l64.3,64.3"/>
				<path id="path3390-0" class="st5" d="M-254.9-34.1c1.5,5.9,2.8,11.8,3.9,17.8c0.9,4.5,1.6,9.1,2.3,13.6l-7.9-2.6l-16.5-10.5
					l1.9,16.6l-0.6,8.9l3.6,10.9l26.1-4.2l30-7.6l-17.1-27.7l-3.5,5.3l-9.7-7.9L-254.9-34.1z"/>
				<path id="path3358" class="st3" d="M-265.6,30.2l29.3-26.6l6.6-3.5l8.4-15.8l9.3-7.8l64.3,64.3"/>
				<path id="path3386" class="st5" d="M-212-23.4l12.8,28.9v10.8V27l8,7c2.3-2.3,5.1-4.2,8-5.6c5.3-2.5,11.2-3.3,16.9-4.9
					c2.3-0.6,4.6-1.4,6.5-2.8c0.5-0.4,0.9-0.8,1.3-1.2l-10.7,0L-183.6,5l-10.7-17.5l-3.7,3.2L-212-23.4z"/>
				<path id="path3370" class="st4" d="M-265.6,105.2c-0.1-3.4-3.2-6.3,6.1-11c11.4-5.7,45-12.8,54.4-21.4
					c6.9-6.4-25.2-13.5-19.7-21.1c2.5-3.5,21.1-7.1,29.3-10.8c7.8-3.5,5.4-7.1,11.2-10.7c5.6-3.5,24.4-7.1,25.8-10.7
					c-3.7,3.8-24.6,7.3-32.2,10.7c-8,3.6-7.7,7.1-17.7,10.5c-10.8,3.7-31.8,7.3-36.7,10.9c-10.2,7.5,16.7,15.2,5.8,21.4
					c-14.8,8.4-53.4,15.5-69.3,21.4c-11,4.1-10.1,6.3-10.7,10.7"/>
			</g>
		</g>
	</g>
	<g class="st6">
		<path class="st7" d="M441,221h-1.7l-3.4-5.8v5.8h-1.6v-8.2h1.8l3.3,5.7v-5.7h1.6V221z"/>
		<path class="st7" d="M446.3,221.2c-1.2,0-2.1-0.3-2.7-1c-0.8-0.8-1.3-1.9-1.3-3.4c0-1.5,0.4-2.6,1.3-3.4c0.6-0.6,1.5-1,2.7-1
			c1.2,0,2.1,0.3,2.7,1c0.8,0.8,1.2,1.9,1.2,3.4c0,1.5-0.4,2.6-1.2,3.4C448.4,220.9,447.5,221.2,446.3,221.2z M447.9,219
			c0.4-0.5,0.6-1.2,0.6-2.1c0-0.9-0.2-1.6-0.6-2.1c-0.4-0.5-0.9-0.8-1.6-0.8c-0.7,0-1.2,0.3-1.6,0.8c-0.4,0.5-0.6,1.2-0.6,2.1
			s0.2,1.6,0.6,2.1c0.4,0.5,0.9,0.8,1.6,0.8C447,219.7,447.5,219.5,447.9,219z"/>
		<path class="st7" d="M454.6,212.7h1.7v8.2h-1.7V212.7z"/>
		<path class="st7" d="M459.5,221h-1.6v-8.2h2.5l1.5,6.5l1.5-6.5h2.5v8.2h-1.6v-5.6c0-0.2,0-0.4,0-0.7c0-0.3,0-0.5,0-0.7l-1.6,6.9
			H461l-1.5-6.9c0,0.2,0,0.4,0,0.7c0,0.3,0,0.5,0,0.7V221z"/>
		<path class="st7" d="M472.2,219.3h-3l-0.6,1.7h-1.8l2.9-8.2h1.9l2.9,8.2h-1.9L472.2,219.3z M471.7,217.9l-1-3.2l-1.1,3.2H471.7z"
			/>
		<path class="st7" d="M480.7,220.8c-0.5,0.3-1,0.4-1.7,0.4c-1.1,0-2-0.4-2.7-1.1c-0.7-0.8-1.1-1.8-1.1-3.1c0-1.3,0.4-2.4,1.1-3.2
			s1.7-1.2,2.9-1.2c1,0,1.9,0.3,2.5,0.8s1,1.2,1.1,2h-1.7c-0.1-0.6-0.4-1-1-1.2c-0.3-0.1-0.6-0.2-0.9-0.2c-0.7,0-1.2,0.2-1.6,0.8
			S477,216,477,217c0,1,0.2,1.7,0.7,2.1c0.5,0.4,1,0.6,1.6,0.6c0.6,0,1-0.2,1.4-0.5s0.6-0.8,0.7-1.3h-1.9v-1.4h3.4v4.4h-1.1l-0.2-1
			C481.3,220.3,481,220.6,480.7,220.8z"/>
		<path class="st7" d="M490.3,217.4h-4v2.1h4.6v1.5h-6.2v-8.2h6v1.5h-4.4v1.7h4V217.4z"/>
	</g>
	<g class="st6">
		<path class="st7" d="M436.2,233.6h-3l-0.6,1.7h-1.8l2.9-8.2h1.9l2.9,8.2h-1.9L436.2,233.6z M435.8,232.2l-1-3.2l-1.1,3.2H435.8z"
			/>
		<path class="st7" d="M439.1,227h1.8l1.8,6.2l1.8-6.2h1.8l-2.8,8.2h-1.6L439.1,227z"/>
		<path class="st7" d="M452.1,233.6h-3l-0.6,1.7h-1.8l2.9-8.2h1.9l2.9,8.2h-1.9L452.1,233.6z M451.6,232.2l-1-3.2l-1.1,3.2H451.6z"
			/>
		<path class="st7" d="M455.4,227h1.7v8.2h-1.7V227z"/>
		<path class="st7" d="M458.7,227h1.7v6.7h4.1v1.5h-5.8V227z"/>
		<path class="st7" d="M470.5,233.6h-3l-0.6,1.7h-1.8l2.9-8.2h1.9l2.9,8.2h-1.9L470.5,233.6z M470.1,232.2l-1-3.2l-1.1,3.2H470.1z"
			/>
		<path class="st7" d="M477.7,235.3H474V227h4c1,0,1.7,0.3,2.1,0.9c0.3,0.3,0.4,0.8,0.4,1.3c0,0.5-0.1,0.9-0.4,1.2
			c-0.1,0.2-0.3,0.3-0.6,0.5c0.4,0.2,0.7,0.4,1,0.7c0.2,0.3,0.3,0.7,0.3,1.2c0,0.5-0.1,0.9-0.4,1.3c-0.2,0.3-0.4,0.5-0.6,0.6
			c-0.3,0.2-0.6,0.3-0.9,0.4C478.5,235.2,478.1,235.3,477.7,235.3z M478.5,230.1c0.2-0.1,0.3-0.4,0.3-0.7c0-0.4-0.1-0.6-0.4-0.8
			c-0.3-0.1-0.6-0.1-1-0.1h-1.8v1.8h2C478,230.3,478.3,230.2,478.5,230.1z M477.7,231.6h-2v2.2h2c0.4,0,0.6,0,0.8-0.1
			c0.4-0.2,0.5-0.5,0.5-1c0-0.4-0.2-0.7-0.5-0.9C478.3,231.7,478,231.6,477.7,231.6z"/>
		<path class="st7" d="M482.2,227h1.7v6.7h4.1v1.5h-5.8V227z"/>
		<path class="st7" d="M494.9,231.7h-4v2.1h4.6v1.5h-6.2V227h6v1.5h-4.4v1.7h4V231.7z"/>
	</g>
</g>
</svg>
